# xmcd
#
# Track frame offsets:
#	150
#	10322
#	20872
#	31102
#	44640
#	57220
#	68045
#	80860
#	90465
#	100837
#	112182
#	124080
#	136095
#	147777
#	160350
#	172022
#	182375
#	192140
#	202647
#	212010
#	220365
#	230892
#	241292
#	251000
#	264247
#	275297
#	288337
#	298945
#	307717
#	319235
#	332330
#	344540
#
# Disc length: 4762
#
# Revision: 2
# Processed by: cddbd v1.5.1PL0 Copyright (c) Steve Scherf et al.
# Submitted via: audiograbber 1.82.01
# Normalized: r1:DSETVAR1
#
DISCID=da129820
DTITLE=Various Artist - Gonna Rock The Blues
DYEAR=1995
DGENRE=Blues
TTITLE0=Gunter Lee Carr - We´re Gonna Rock
TTITLE1=Eddie Hope - A Fool No More
TTITLE2=J.B. Hutto and His Hawks - Combination Boogie
TTITLE3=Sly Fox, The - Hoo-Doo Say
TTITLE4=Bob Gaddy - Slow Down Baby
TTITLE5=Bobo Jenkins - Nothing But Love
TTITLE6=Lightning Hopkins - I´m Wild About You Baby
TTITLE7=Eddie Hope - Lost Child
TTITLE8=Louisiana Red - I Done Woke Up
TTITLE9=Sly Fox, The - I´m Tired Of Beggin´
TTITLE10=Homesick James - Set A Date
TTITLE11=Joe Hill Louis - Hydramatic Woman
TTITLE12=Bobo Jenkins - Tell Me Who
TTITLE13=Snooky Pryor - Boogie Twist
TTITLE14=Homesick James - Can´t Afford To Do It
TTITLE15=Big Walter - Six Weeks Of Misery
TTITLE16=Jerry McCain - Next Door Neighbor
TTITLE17=Mojo Watson - Look-A-There
TTITLE18=Jimmy Wilson - Jumpin´ From Six To Six
TTITLE19=Jo Jo Williams - Rock and Roll Boogie
TTITLE20=Jesse Allen - Love My Baby
TTITLE21=Lightning Hopkins - Let´s Move
TTITLE22=Hound Dog Taylor - Alley Music
TTITLE23=Mister Ruffin - Bring It On Back
TTITLE24=Otis Rush - Jump Sister Bessie
TTITLE25=TV Slim - Can´t Be Satisfied
TTITLE26=Sonny Terry and His Buckshot Five - I Love You Baby
TTITLE27=Magic Sam - 21 Days In Jail
TTITLE28=B.Brown and His Rockin´ McVouts - My Baby Left Me
TTITLE29=Tarheel Slim - Number 9 Train
TTITLE30=Big Boy Groves - I Gotta New Car
TTITLE31=Harold Burrage - Stop, For The Red Light
EXTD=
EXTT0=
EXTT1=
EXTT2=
EXTT3=
EXTT4=
EXTT5=
EXTT6=
EXTT7=
EXTT8=
EXTT9=
EXTT10=
EXTT11=
EXTT12=
EXTT13=
EXTT14=
EXTT15=
EXTT16=
EXTT17=
EXTT18=
EXTT19=
EXTT20=
EXTT21=
EXTT22=
EXTT23=
EXTT24=
EXTT25=
EXTT26=
EXTT27=
EXTT28=
EXTT29=
EXTT30=
EXTT31=
PLAYORDER=
